<svg xmlns="http://www.w3.org/2000/svg" viewBox="0 0 319 45">
  <g fill="none" fill-rule="evenodd">
    <path fill="#FE8CFB" d="M175.916016,17.515625 L185.90625,17.515625 C186.980474,17.5351563 187.390626,18.1601501 187.136719,19.390625 L186.433594,22.8476562 C186.375,23.0820324 186.277344,23.3164051 186.140625,23.5507812 C185.710935,24.1757844 185.183597,24.4882812 184.558594,24.4882812 L174.158203,24.4882812 L170.935547,37.0273438 L182.15625,37.0273438 C183.3086,37.0468751 183.757814,37.6718688 183.503906,38.9023438 L182.742188,42.359375 C182.683593,42.5937512 182.576173,42.8281238 182.419922,43.0625 C181.970701,43.6875031 181.414066,44 180.75,44 L162.761719,44 C162.507811,44 162.273439,43.9414068 162.058594,43.8242188 C161.550779,43.4921858 161.39453,42.9453163 161.589844,42.1835938 L170.173828,8.55078125 L168.09375,8.55078125 C167.937499,8.55078125 167.791016,8.54101572 167.654297,8.52148438 C166.873043,8.38476494 166.648436,7.6914125 166.980469,6.44140625 L167.917969,2.75 C167.996094,2.39843574 168.088867,2.11523545 168.196289,1.90039062 C168.303711,1.6855458 168.60156,1.578125 169.089844,1.578125 L190.828125,1.578125 C191.980475,1.59765635 192.429689,2.2226501 192.175781,3.453125 L191.414062,6.91015625 C191.355468,7.14453242 191.248048,7.37890508 191.091797,7.61328125 C190.642576,8.23828437 190.085941,8.55078125 189.421875,8.55078125 L178.201172,8.55078125 L175.916016,17.515625 Z M205.066406,8.81445312 L197.976562,36.6171875 C198.328127,36.6562502 199.011714,36.6757812 200.027344,36.6757812 C202.72267,36.6562499 205.144521,32.4375421 207.292969,24.0195312 C208.210942,20.2890438 208.640625,16.958999 208.582031,14.0292969 C208.503906,11.0410007 207.917974,9.39062656 206.824219,9.078125 C206.41406,8.96093691 205.828129,8.87304717 205.066406,8.81445312 Z M196.921875,9.10742188 C196.472654,9.16601592 196.042971,9.23437461 195.632812,9.3125 C194.636714,9.50781348 194.089844,9.60546875 193.992188,9.60546875 C193.796874,9.60546875 193.611329,9.56640664 193.435547,9.48828125 C192.869138,9.25390508 192.644531,8.74609766 192.761719,7.96484375 L193.347656,3.3359375 C193.464844,2.76952842 193.914059,2.37890732 194.695312,2.1640625 C194.734375,2.1640625 194.792968,2.15429697 194.871094,2.13476562 C197.917984,1.49023115 201.17967,1.16796875 204.65625,1.16796875 C207.253919,1.16796875 209.460928,1.61718301 211.277344,2.515625 C215.105488,4.41016572 217.019531,8.14059717 217.019531,13.7070312 C217.019531,17.2031425 216.394538,21.3437261 215.144531,26.1289062 C214.343746,29.1562651 213.357428,31.8515507 212.185547,34.2148438 C208.845686,40.8945646 204.324247,44.234375 198.621094,44.234375 L198.210938,44.234375 C194.402325,44.234375 191.765632,44.0976576 190.300781,43.8242188 C190.046874,43.7656247 189.822267,43.697266 189.626953,43.6191406 C188.70898,43.2285137 188.425779,42.3398507 188.777344,40.953125 L196.921875,9.10742188 Z M225.369141,2.8671875 C225.603517,2.02733955 226.189448,1.59765635 227.126953,1.578125 L232.751953,1.578125 C232.869141,1.578125 232.996093,1.58789053 233.132812,1.60742188 C233.718753,1.70507861 234.060546,2.14452734 234.158203,2.92578125 C234.861332,10.5430068 235.085939,17.3105173 234.832031,23.2285156 L246.755859,2.69140625 C246.794922,2.63281221 246.833984,2.56445352 246.873047,2.48632812 C247.283205,1.88085635 247.830075,1.578125 248.513672,1.578125 L254.138672,1.578125 C254.392579,1.578125 254.617187,1.63671816 254.8125,1.75390625 C255.320315,2.08593916 255.486329,2.63280869 255.310547,3.39453125 L245.291016,42.7109375 C245.056639,43.5507854 244.470708,43.9804687 243.533203,44 L238.552734,44 C238.298827,44 238.07422,43.9414068 237.878906,43.8242188 C237.371091,43.4921858 237.205077,42.9453163 237.380859,42.1835938 L241.921875,24.3417969 L238.083984,30.6992188 C238.064453,30.7382814 238.035156,30.7871091 237.996094,30.8457031 C236.960932,32.5449304 235.740241,33.3945312 234.333984,33.3945312 L230.466797,32.984375 C229.138665,32.8085929 228.513671,32.0273507 228.591797,30.640625 C228.767579,27.945299 228.796876,24.8691579 228.679688,21.4121094 L223.259766,42.7109375 C223.025389,43.5507854 222.439458,43.9804687 221.501953,44 L216.521484,44 C216.267577,44 216.04297,43.9414068 215.847656,43.8242188 C215.339841,43.4921858 215.173827,42.9453163 215.349609,42.1835938 L225.369141,2.8671875 Z"/>
    <path fill="#FFF" d="M.52 43L.52 8.64 7.32 8.64 7.32 22.4 10.52 8.64 17.44 8.64 13.6 24.36 18.24 43 11.12 43 7.36 26.36 7.36 43 .52 43zM19.28 13.72L26.28 13.72 26.28 17.44C26.5733348 16.239994 27.0799964 15.2666704 27.8 14.52 28.5200036 13.7733296 29.479994 13.4 30.68 13.4 32.6533432 13.4 34.1133286 14.0066606 35.06 15.22 36.0066714 16.4333394 36.48 18.1599888 36.48 20.4L36.48 43 29.6 43 29.6 21.12C29.6 20.4799968 29.4733346 19.9333356 29.22 19.48 28.9666654 19.0266644 28.573336 18.8 28.04 18.8 27.3199964 18.8 26.8466678 19.1266634 26.62 19.78 26.3933322 20.4333366 26.28 21.3066612 26.28 22.4L26.28 43 19.28 43 19.28 13.72zM39 34.24L39 22.48C39 19.7066528 39.7799922 17.5000082 41.34 15.86 42.9000078 14.2199918 45.0399864 13.4 47.76 13.4 50.4800136 13.4 52.6199922 14.2199918 54.18 15.86 55.7400078 17.5000082 56.52 19.7066528 56.52 22.48L56.52 34.24C56.52 40.2933636 53.6000292 43.32 47.76 43.32 41.9199708 43.32 39 40.2933636 39 34.24zM49 37.32C49.266668 36.919998 49.4 36.3733368 49.4 35.68L49.4 21.36C49.4 19.6533248 48.8533388 18.8 47.76 18.8 46.6666612 18.8 46.12 19.6533248 46.12 21.36L46.12 35.68C46.12 36.3733368 46.253332 36.919998 46.52 37.32 46.786668 37.720002 47.1999972 37.92 47.76 37.92 48.3200028 37.92 48.733332 37.720002 49 37.32zM62.2 43L58.64 13.72 64.64 13.72 66.6 29.44 68.28 13.72 74.4 13.72 76.4 29.44 78.04 13.72 84.64 13.72 80.88 43 73.88 43 71.8 26.36 69.96 43 62.2 43zM91.24 43L91.24 31.68 85.76 8.64 92.56 8.64 94.48 20.28 96.4 8.64 103.2 8.64 97.72 31.68 97.72 43 91.24 43zM104.56 34.24L104.56 22.48C104.56 19.7066528 105.339992 17.5000082 106.9 15.86 108.460008 14.2199918 110.599986 13.4 113.32 13.4 116.040014 13.4 118.179992 14.2199918 119.74 15.86 121.300008 17.5000082 122.08 19.7066528 122.08 22.48L122.08 34.24C122.08 40.2933636 119.160029 43.32 113.32 43.32 107.479971 43.32 104.56 40.2933636 104.56 34.24zM114.56 37.32C114.826668 36.919998 114.96 36.3733368 114.96 35.68L114.96 21.36C114.96 19.6533248 114.413339 18.8 113.32 18.8 112.226661 18.8 111.68 19.6533248 111.68 21.36L111.68 35.68C111.68 36.3733368 111.813332 36.919998 112.08 37.32 112.346668 37.720002 112.759997 37.92 113.32 37.92 113.880003 37.92 114.293332 37.720002 114.56 37.32zM125.82 41.36C125.006663 40.0533268 124.6 38.1066796 124.6 35.52L124.6 13.72 131.64 13.72 131.64 35.62C131.64 36.4333374 131.766665 37.006665 132.02 37.34 132.273335 37.673335 132.666664 37.84 133.2 37.84 133.920004 37.84 134.373332 37.540003 134.56 36.94 134.746668 36.339997 134.84 35.4800056 134.84 34.36L134.84 34.12 134.88 13.72 141.84 13.72 141.84 43 134.84 43 134.84 39.88C134.359998 41.1066728 133.800003 41.986664 133.16 42.52 132.519997 43.053336 131.57334 43.32 130.32 43.32 128.133322 43.32 126.633337 42.6666732 125.82 41.36zM144.64 13.72L151.64 13.72 151.64 16.96C151.986668 15.8133276 152.593329 14.9266698 153.46 14.3 154.326671 13.6733302 155.399994 13.36 156.68 13.36L156.68 19.2C155.693328 19.2 154.606673 19.3399986 153.42 19.62 152.233327 19.9000014 151.64 20.2266648 151.64 20.6L151.64 43 144.64 43 144.64 13.72zM272.31543 17.1367188C272.31543 17.8496129 272.181154 18.5185516 271.912598 19.1435547 271.644042 19.7685578 271.275393 20.3154273 270.806641 20.7841797 270.337888 21.252932 269.791019 21.6215807 269.166016 21.8901367 268.541013 22.1586927 267.872074 22.2929688 267.15918 22.2929688L266.265625 22.2929688C265.552731 22.2929688 264.881351 22.1586927 264.251465 21.8901367 263.621579 21.6215807 263.072268 21.252932 262.603516 20.7841797 262.134763 20.3154273 261.766115 19.7685578 261.497559 19.1435547 261.229003 18.5185516 261.094727 17.8496129 261.094727 17.1367188L261.094727 16.5947266 262.984375 16.3017578 262.984375 17.1367188C262.984375 17.6054711 263.072265 18.0424784 263.248047 18.4477539 263.423829 18.8530294 263.665526 19.2094711 263.973145 19.5170898 264.280763 19.8247086 264.637205 20.0664054 265.04248 20.2421875 265.447756 20.4179696 265.884763 20.5058594 266.353516 20.5058594L267.071289 20.5058594C267.540041 20.5058594 267.977049 20.4179696 268.382324 20.2421875 268.7876 20.0664054 269.1416 19.8247086 269.444336 19.5170898 269.747072 19.2094711 269.986327 18.8530294 270.162109 18.4477539 270.337892 18.0424784 270.425781 17.6054711 270.425781 17.1367188L270.425781 15.3935547C270.425781 14.9248023 270.337892 14.487795 270.162109 14.0825195 269.986327 13.6772441 269.747072 13.3232437 269.444336 13.0205078 269.1416 12.7177719 268.7876 12.4785165 268.382324 12.3027344 267.977049 12.1269522 267.540041 12.0390625 267.071289 12.0390625L265.665039 12.0390625 265.665039 10.2373047 267.071289 10.2373047C267.540041 10.2373047 267.977049 10.1494149 268.382324 9.97363281 268.7876 9.79785068 269.1416 9.55859526 269.444336 9.25585938 269.747072 8.95312349 269.986327 8.59912312 270.162109 8.19384766 270.337892 7.78857219 270.425781 7.35156484 270.425781 6.8828125L270.425781 5.85742188C270.425781 5.38866953 270.337892 4.95166218 270.162109 4.54638672 269.986327 4.14111125 269.747072 3.78711089 269.444336 3.484375 269.1416 3.18163911 268.7876 2.94238369 268.382324 2.76660156 267.977049 2.59081943 267.540041 2.50292969 267.071289 2.50292969L266.353516 2.50292969C265.884763 2.50292969 265.447756 2.59081943 265.04248 2.76660156 264.637205 2.94238369 264.280763 3.18163911 263.973145 3.484375 263.665526 3.78711089 263.423829 4.14111125 263.248047 4.54638672 263.072265 4.95166218 262.984375 5.38866953 262.984375 5.85742188L262.984375 6.70703125 261.094727 6.39941406 261.094727 5.85742188C261.094727 5.14452769 261.229003 4.47558906 261.497559 3.85058594 261.766115 3.22558281 262.134763 2.67871328 262.603516 2.20996094 263.072268 1.74120859 263.621579 1.37255994 264.251465 1.10400391 264.881351.835447876 265.552731.701171875 266.265625.701171875L267.15918.701171875C267.872074.701171875 268.541013.835447876 269.166016 1.10400391 269.791019 1.37255994 270.337888 1.74120859 270.806641 2.20996094 271.275393 2.67871328 271.644042 3.22558281 271.912598 3.85058594 272.181154 4.47558906 272.31543 5.14452769 272.31543 5.85742188L272.31543 6.57519531C272.31543 7.07324468 272.249512 7.54931414 272.117676 8.00341797 271.985839 8.4575218 271.800294 8.87988086 271.561035 9.27050781 271.321776 9.66113477 271.036134 10.0151351 270.704102 10.3325195 270.372069 10.6499039 270.000979 10.9208973 269.59082 11.1455078 270.000979 11.3603526 270.372069 11.6264633 270.704102 11.9438477 271.036134 12.2612321 271.321776 12.6152324 271.561035 13.0058594 271.800294 13.3964863 271.985839 13.8188454 272.117676 14.2729492 272.249512 14.7270531 272.31543 15.2031225 272.31543 15.7011719L272.31543 17.1367188zM287.447266 17.1367188C287.447266 17.8496129 287.31299 18.5185516 287.044434 19.1435547 286.775878 19.7685578 286.407229 20.3154273 285.938477 20.7841797 285.469724 21.252932 284.922855 21.6215807 284.297852 21.8901367 283.672848 22.1586927 283.00391 22.2929688 282.291016 22.2929688L281.397461 22.2929688C280.684567 22.2929688 280.013187 22.1586927 279.383301 21.8901367 278.753415 21.6215807 278.204104 21.252932 277.735352 20.7841797 277.266599 20.3154273 276.897951 19.7685578 276.629395 19.1435547 276.360839 18.5185516 276.226562 17.8496129 276.226562 17.1367188L276.226562 5.85742188C276.226562 5.14452769 276.360839 4.47558906 276.629395 3.85058594 276.897951 3.22558281 277.266599 2.67871328 277.735352 2.20996094 278.204104 1.74120859 278.753415 1.37255994 279.383301 1.10400391 280.013187.835447876 280.684567.701171875 281.397461.701171875L282.291016.701171875C283.00391.701171875 283.672848.835447876 284.297852 1.10400391 284.922855 1.37255994 285.469724 1.74120859 285.938477 2.20996094 286.407229 2.67871328 286.775878 3.22558281 287.044434 3.85058594 287.31299 4.47558906 287.447266 5.14452769 287.447266 5.85742188L287.447266 17.1367188zM285.557617 5.85742188C285.557617 5.38866953 285.469727 4.95166218 285.293945 4.54638672 285.118163 4.14111125 284.878908 3.78711089 284.576172 3.484375 284.273436 3.18163911 283.919436 2.94238369 283.51416 2.76660156 283.108885 2.59081943 282.671877 2.50292969 282.203125 2.50292969L281.485352 2.50292969C281.016599 2.50292969 280.579592 2.59081943 280.174316 2.76660156 279.769041 2.94238369 279.412599 3.18163911 279.10498 3.484375 278.797362 3.78711089 278.555665 4.14111125 278.379883 4.54638672 278.204101 4.95166218 278.116211 5.38866953 278.116211 5.85742188L278.116211 17.1367188C278.116211 17.6054711 278.204101 18.0424784 278.379883 18.4477539 278.555665 18.8530294 278.797362 19.2094711 279.10498 19.5170898 279.412599 19.8247086 279.769041 20.0664054 280.174316 20.2421875 280.579592 20.4179696 281.016599 20.5058594 281.485352 20.5058594L282.203125 20.5058594C282.671877 20.5058594 283.108885 20.4179696 283.51416 20.2421875 283.919436 20.0664054 284.273436 19.8247086 284.576172 19.5170898 284.878908 19.2094711 285.118163 18.8530294 285.293945 18.4477539 285.469727 18.0424784 285.557617 17.6054711 285.557617 17.1367188L285.557617 5.85742188zM302.87207 17.1367188C302.87207 17.8496129 302.737794 18.5185516 302.469238 19.1435547 302.200682 19.7685578 301.832034 20.3154273 301.363281 20.7841797 300.894529 21.252932 300.347659 21.6215807 299.722656 21.8901367 299.097653 22.1586927 298.428715 22.2929688 297.71582 22.2929688L296.822266 22.2929688C296.109371 22.2929688 295.437991 22.1586927 294.808105 21.8901367 294.17822 21.6215807 293.628909 21.252932 293.160156 20.7841797 292.691404 20.3154273 292.322755 19.7685578 292.054199 19.1435547 291.785643 18.5185516 291.651367 17.8496129 291.651367 17.1367188L291.651367 5.85742188C291.651367 5.14452769 291.785643 4.47558906 292.054199 3.85058594 292.322755 3.22558281 292.691404 2.67871328 293.160156 2.20996094 293.628909 1.74120859 294.17822 1.37255994 294.808105 1.10400391 295.437991.835447876 296.109371.701171875 296.822266.701171875L297.71582.701171875C298.428715.701171875 299.097653.835447876 299.722656 1.10400391 300.347659 1.37255994 300.894529 1.74120859 301.363281 2.20996094 301.832034 2.67871328 302.200682 3.22558281 302.469238 3.85058594 302.737794 4.47558906 302.87207 5.14452769 302.87207 5.85742188L302.87207 17.1367188zM300.982422 5.85742188C300.982422 5.38866953 300.894532 4.95166218 300.71875 4.54638672 300.542968 4.14111125 300.303712 3.78711089 300.000977 3.484375 299.698241 3.18163911 299.34424 2.94238369 298.938965 2.76660156 298.533689 2.59081943 298.096682 2.50292969 297.62793 2.50292969L296.910156 2.50292969C296.441404 2.50292969 296.004397 2.59081943 295.599121 2.76660156 295.193846 2.94238369 294.837404 3.18163911 294.529785 3.484375 294.222166 3.78711089 293.98047 4.14111125 293.804688 4.54638672 293.628905 4.95166218 293.541016 5.38866953 293.541016 5.85742188L293.541016 17.1367188C293.541016 17.6054711 293.628905 18.0424784 293.804688 18.4477539 293.98047 18.8530294 294.222166 19.2094711 294.529785 19.5170898 294.837404 19.8247086 295.193846 20.0664054 295.599121 20.2421875 296.004397 20.4179696 296.441404 20.5058594 296.910156 20.5058594L297.62793 20.5058594C298.096682 20.5058594 298.533689 20.4179696 298.938965 20.2421875 299.34424 20.0664054 299.698241 19.8247086 300.000977 19.5170898 300.303712 19.2094711 300.542968 18.8530294 300.71875 18.4477539 300.894532 18.0424784 300.982422 17.6054711 300.982422 17.1367188L300.982422 5.85742188zM318.296875 17.1367188C318.296875 17.8496129 318.162599 18.5185516 317.894043 19.1435547 317.625487 19.7685578 317.256838 20.3154273 316.788086 20.7841797 316.319334 21.252932 315.772464 21.6215807 315.147461 21.8901367 314.522458 22.1586927 313.853519 22.2929688 313.140625 22.2929688L312.24707 22.2929688C311.534176 22.2929688 310.862796 22.1586927 310.23291 21.8901367 309.603024 21.6215807 309.053713 21.252932 308.584961 20.7841797 308.116209 20.3154273 307.74756 19.7685578 307.479004 19.1435547 307.210448 18.5185516 307.076172 17.8496129 307.076172 17.1367188L307.076172 5.85742188C307.076172 5.14452769 307.210448 4.47558906 307.479004 3.85058594 307.74756 3.22558281 308.116209 2.67871328 308.584961 2.20996094 309.053713 1.74120859 309.603024 1.37255994 310.23291 1.10400391 310.862796.835447876 311.534176.701171875 312.24707.701171875L313.140625.701171875C313.853519.701171875 314.522458.835447876 315.147461 1.10400391 315.772464 1.37255994 316.319334 1.74120859 316.788086 2.20996094 317.256838 2.67871328 317.625487 3.22558281 317.894043 3.85058594 318.162599 4.47558906 318.296875 5.14452769 318.296875 5.85742188L318.296875 17.1367188zM316.407227 5.85742188C316.407227 5.38866953 316.319337 4.95166218 316.143555 4.54638672 315.967773 4.14111125 315.728517 3.78711089 315.425781 3.484375 315.123045 3.18163911 314.769045 2.94238369 314.36377 2.76660156 313.958494 2.59081943 313.521487 2.50292969 313.052734 2.50292969L312.334961 2.50292969C311.866209 2.50292969 311.429201 2.59081943 311.023926 2.76660156 310.61865 2.94238369 310.262209 3.18163911 309.95459 3.484375 309.646971 3.78711089 309.405274 4.14111125 309.229492 4.54638672 309.05371 4.95166218 308.96582 5.38866953 308.96582 5.85742188L308.96582 17.1367188C308.96582 17.6054711 309.05371 18.0424784 309.229492 18.4477539 309.405274 18.8530294 309.646971 19.2094711 309.95459 19.5170898 310.262209 19.8247086 310.61865 20.0664054 311.023926 20.2421875 311.429201 20.4179696 311.866209 20.5058594 312.334961 20.5058594L313.052734 20.5058594C313.521487 20.5058594 313.958494 20.4179696 314.36377 20.2421875 314.769045 20.0664054 315.123045 19.8247086 315.425781 19.5170898 315.728517 19.2094711 315.967773 18.8530294 316.143555 18.4477539 316.319337 18.0424784 316.407227 17.6054711 316.407227 17.1367188L316.407227 5.85742188z"/>
  </g>
</svg>
