<svg xmlns="http://www.w3.org/2000/svg" width="1000" height="96" viewBox="0 0 1000 96">
  <g fill="none" fill-rule="evenodd">
    <path fill="#D8D8D8" fill-rule="nonzero" d="M0,5.11171635 C0,2.28859337 2.28074729,0 5.11251457,0 L994.887486,0 C997.711049,0 1000,2.30317658 1000,5.11171635 L1000,52.8109029 L0,52.8109029 L0,5.11171635 Z"/>
    <g transform="translate(0 6.814)">
      <path fill="#F2F2F2" fill-rule="nonzero" d="M107.389788,35.7751278 L117.810074,4.84381545 C118.711296,2.16865005 121.729715,0 124.552386,0 L314.970032,0 C317.792487,0 320.809026,2.1624216 321.712346,4.84381545 L332.132632,35.7751278 L1000,35.7751278 L1000,88.5860307 L0,88.5860307 L0,35.7751278 L107.389788,35.7751278 Z"/>
      <text fill="#757575" font-family="Helvetica" font-size="13.629" transform="translate(129.472 11.925)">
        <tspan x="0" y="13">New Tab</tspan>
      </text>
    </g>
    <rect width="809.199" height="35.775" x="135.434" y="51.959" fill="#FFF" fill-rule="nonzero" stroke="#F2F2F2" stroke-width="1.704" rx="3.407"/>
    <g transform="translate(945.486 56.218)">
      <polygon points="0 0 23.85 0 23.85 23.85 0 23.85"/>
      <path fill="#CCC" fill-rule="nonzero" d="M17.0357751,18.7393526 L35.7751278,18.7393526 L35.7751278,17.0357751 L17.0357751,17.0357751 L17.0357751,18.7393526 Z M17.0357751,13.6286201 L35.7751278,13.6286201 L35.7751278,11.9250426 L17.0357751,11.9250426 L17.0357751,13.6286201 Z M17.0357751,6.81431005 L17.0357751,8.51788756 L35.7751278,8.51788756 L35.7751278,6.81431005 L17.0357751,6.81431005 Z"/>
    </g>
    <g transform="translate(93.697 56.218)">
      <path fill="#CCC" fill-rule="nonzero" d="M17.9392359,5.9092845 C16.3944032,4.36541738 14.2742536,3.40715503 11.9197156,3.40715503 C7.21063952,3.40715503 3.40715503,7.21890971 3.40715503,11.9250426 C3.40715503,16.6311755 7.21063952,20.4429302 11.9197156,20.4429302 C15.8936644,20.4429302 19.2070641,17.7278535 20.1552717,14.0545145 L17.9392359,14.0545145 C17.0656063,16.5353492 14.7004143,18.3134583 11.9197156,18.3134583 C8.39323555,18.3134583 5.52730465,15.4493186 5.52730465,11.9250426 C5.52730465,8.40076661 8.39323555,5.53662692 11.9197156,5.53662692 C13.6882826,5.53662692 15.2650773,6.27129472 16.4157113,7.4318569 L12.9851174,10.8603066 L20.4429302,10.8603066 L20.4429302,3.40715503 L17.9392359,5.9092845 Z"/>
      <polygon points="0 0 23.85 0 23.85 23.85 0 23.85"/>
    </g>
    <g transform="translate(17.036 56.218)">
      <polygon points="0 0 23.85 0 23.85 23.85 0 23.85"/>
      <polygon fill="#CCC" fill-rule="nonzero" points="20.443 10.86 7.486 10.86 13.438 4.908 11.925 3.407 3.407 11.925 11.925 20.443 13.426 18.942 7.486 12.99 20.443 12.99"/>
    </g>
    <g transform="translate(54.514 56.218)">
      <polygon points="0 0 23.85 0 23.85 23.85 0 23.85"/>
      <polygon fill="#CCC" fill-rule="nonzero" points="11.925 3.407 10.424 4.908 16.365 10.86 3.407 10.86 3.407 12.99 16.365 12.99 10.424 18.942 11.925 20.443 20.443 11.925"/>
    </g>
    <g fill-rule="nonzero" transform="translate(23.85 17.036)">
      <circle cx="42.589" cy="5.111" r="5.111" fill="#00CC57"/>
      <circle cx="5.111" cy="5.111" r="5.111" fill="#FF5D5B"/>
      <circle cx="23.85" cy="5.111" r="5.111" fill="#FFBC4C"/>
    </g>
    <g transform="translate(298.126 25.554)">
      <polygon fill="#757575" fill-rule="nonzero" points="11.925 4.266 11.066 3.407 7.666 6.807 4.266 3.407 3.407 4.266 6.807 7.666 3.407 11.066 4.266 11.925 7.666 8.525 11.066 11.925 11.925 11.066 8.525 7.666"/>
      <polygon points="0 0 15.332 0 15.332 15.332 0 15.332"/>
    </g>
  </g>
</svg>
